<svg width="50" height="50" viewBox="0 0 50 50" fill="none" xmlns="http://www.w3.org/2000/svg">
<path d="M25.0001 5.24996C27.9845 5.24996 29.7247 5.23627 31.1895 5.74117L31.6143 5.89938C32.1822 6.12771 32.7207 6.41321 33.2247 6.74703C32.673 7.15769 32.182 7.64577 31.7686 8.19528C31.4807 8.02816 31.1802 7.88028 30.8682 7.75485L30.5382 7.6318C29.4687 7.2631 28.1439 7.24996 25.0001 7.24996C22.0528 7.24996 20.7043 7.26213 19.6661 7.56735L19.462 7.6318C17.7935 8.20705 16.4083 9.39026 15.5772 10.9375L15.418 11.2519C14.9337 12.274 14.774 13.5896 14.4268 16.7138L13.88 21.6396C13.7159 23.116 13.6148 24.0582 13.379 24.9023L13.2696 25.2597C13.0309 25.967 12.68 26.622 12.1514 27.5195L11.5606 28.5088L8.92488 32.9023C8.50474 33.6025 8.25052 34.0305 8.12019 34.3447C8.11804 34.3499 8.11634 34.3553 8.11433 34.3603C8.11987 34.3612 8.12611 34.3634 8.13191 34.3642C8.46836 34.414 8.96613 34.417 9.7823 34.417H40.2178C41.0341 34.417 41.5318 34.4141 41.8682 34.3642C41.8737 34.3634 41.8796 34.3611 41.8848 34.3603C41.8829 34.3554 41.8821 34.3498 41.88 34.3447C41.8148 34.1876 41.7182 34.0023 41.586 33.7685L41.0753 32.9023L38.4395 28.5088C37.6753 27.235 37.1845 26.4247 36.8604 25.6103L36.7305 25.2597C36.4918 24.5523 36.3735 23.8187 36.2501 22.7841L36.1202 21.6396L35.88 19.4795C36.4008 19.5998 36.9427 19.666 37.5001 19.666C37.6384 19.666 37.7758 19.661 37.9122 19.6533L38.1085 21.4189L38.2393 22.5683C38.3578 23.5553 38.4509 24.1011 38.6261 24.6201L38.7208 24.8789C38.9622 25.486 39.3528 26.1435 40.1544 27.4795L42.7901 31.873L43.3282 32.7851C43.4891 33.0707 43.6263 33.337 43.7266 33.5791C43.9174 34.0392 44.078 34.6572 43.7882 35.2783L43.7247 35.4023C43.3498 36.0644 42.6876 36.2647 42.1622 36.3427C41.6439 36.4196 40.9668 36.417 40.2178 36.417H9.7823C9.03333 36.417 8.35627 36.4196 7.83797 36.3427C7.3453 36.2696 6.73324 36.0884 6.34969 35.5205L6.27547 35.4023C5.90056 34.7402 6.07003 34.0698 6.27351 33.5791C6.47428 33.095 6.82461 32.5154 7.21004 31.873L9.84578 27.4795C10.7617 25.9529 11.1405 25.312 11.3741 24.6201L11.4552 24.3564C11.6311 23.7271 11.7196 22.9675 11.8917 21.4189L12.4395 16.4922C12.7691 13.5258 12.9477 11.7946 13.6114 10.3945L13.8155 9.99117C14.884 8.00186 16.6654 6.4808 18.8106 5.74117L19.088 5.65231C20.4971 5.23764 22.2018 5.24996 25.0001 5.24996ZM35.4649 8.86324C35.82 9.33845 36.1308 9.8504 36.3887 10.3945L36.5079 10.6611C37.0757 12.0158 37.2516 13.7111 37.5606 16.4922L37.5792 16.664C37.5529 16.6645 37.5265 16.666 37.5001 16.666L37.2852 16.6611C36.6443 16.6286 36.0422 16.4503 35.5098 16.1601C35.2241 13.6114 35.0597 12.3802 34.669 11.4472L34.5821 11.2519C34.4145 10.8983 34.2171 10.5628 33.9962 10.2461C34.3651 9.67389 34.8694 9.19724 35.4649 8.86324Z" fill="#33363F"/>
<path d="M18.963 36.8014C19.3191 38.7949 20.1037 40.5563 21.1952 41.8127C22.2868 43.069 23.6242 43.75 25 43.75C26.3758 43.75 27.7132 43.069 28.8048 41.8127C29.8963 40.5564 30.6809 38.7949 31.037 36.8014" stroke="#33363F" stroke-width="2" stroke-linecap="round"/>
<circle cx="37.5002" cy="12.5" r="4.66667" fill="#FF0000" stroke="#FF0808"/>
</svg>
